<?xml version="1.0" encoding="iso-8859-1"?>
<!-- Uploaded to: SVG Repo, www.svgrepo.com, Generator: SVG Repo Mixer Tools -->
<svg fill="#000000" width="92" height="32" version="1.1" id="Layer_1" xmlns="http://www.w3.org/2000/svg" xmlns:xlink="http://www.w3.org/1999/xlink" 
	 viewBox="0 0 512.001 512.001" xml:space="preserve">
<g>
	<g>
		<path d="M225.481,78.336c-81.137,0-147.146,66.01-147.146,147.146s66.009,147.145,147.146,147.145s147.146-66.009,147.146-147.145
			S306.617,78.336,225.481,78.336z M175.112,303.274H121.17v-38.192h53.942V303.274z M175.112,234.663H121.17v-34.244h53.942
			V234.663z M249.332,303.274H195.39v-67.678h53.942V303.274z M249.332,205.178H195.39v-34.244h53.942V205.178z M323.552,303.274
			H269.61v-97.163h53.942V303.274z M323.552,175.694H269.61v-34.244h53.942V175.694z"/>
	</g>
</g>
<g>
	<g>
		<path d="M386.517,66.317c-42.764-42.764-99.622-66.316-160.1-66.316S109.081,23.553,66.315,66.316
			C23.551,109.081,0,165.939,0,226.418c0,60.479,23.551,117.337,66.315,160.101c42.765,42.764,99.623,66.315,160.101,66.315
			s117.337-23.552,160.101-66.315c42.765-42.765,66.316-99.623,66.316-160.101S429.282,109.081,386.517,66.317z M225.481,403.045
			c-97.909,0-177.564-79.655-177.564-177.563S127.571,47.918,225.481,47.918s177.564,79.656,177.564,177.564
			S323.39,403.045,225.481,403.045z"/>
	</g>
</g>
<g>
	<g>
		<path d="M498.422,432.864l-60.622-60.623c-8.766,12.65-18.72,24.611-29.834,35.724c-11.114,11.114-23.075,21.068-35.724,29.834
			l60.623,60.623C441.62,507.178,453.262,512,465.644,512c12.382,0,24.024-4.822,32.779-13.578
			c8.756-8.755,13.578-20.396,13.578-32.779C512.001,453.26,507.178,441.619,498.422,432.864z"/>
	</g>
</g>
</svg>