<svg xmlns="http://www.w3.org/2000/svg" xmlns:xlink="http://www.w3.org/1999/xlink" version="1.1" viewBox="0 0 96 120" x="0px" y="0px"><path d="M94 76h-46v-4h44v-60h-68v16h-4v-18c0-1.104 0.896-2 2-2h72c1.1 0 2 0.896 2 2v64c0 1.104-0.9 2-2 2z" fill="#000000"/><path d="M26 60c-9.924 0-18-8.080-18-18s8.076-18 18-18 18 8.080 18 18-8.076 18-18 18zM26 28c-7.72 0-14 6.28-14 14s6.28 14 14 14 14-6.28 14-14-6.28-14-14-14z" fill="#000000"/><path d="M50 88h-48c-1.104 0-2-0.896-2-2v-7.336c0-10.996 7.044-20.876 17.532-24.584 0.88-0.308 1.856 0.036 2.352 0.812l6.12 9.632 6.188-9.684c0.496-0.772 1.456-1.108 2.328-0.816 10.456 3.536 17.484 13.168 17.484 23.972v8c-0.004 1.108-0.904 2.004-2.004 2.004zM4 84h44v-6c0-8.58-5.288-16.288-13.312-19.636l-7.004 10.964c-0.368 0.576-1.004 0.916-1.684 0.916v0c-0.684 0-1.32-0.352-1.684-0.916l-6.92-10.896c-8.072 3.508-13.392 11.444-13.392 20.236l-0.004 5.332z" fill="#000000"/><path d="M76 24h-24c-1.1 0-2-0.896-2-2s0.9-2 2-2h24c1.1 0 2 0.896 2 2s-0.9 2-2 2z" fill="#000000"/><path d="M84 36h-32c-1.1 0-2-0.896-2-2s0.9-2 2-2h32c1.1 0 2 0.896 2 2s-0.9 2-2 2z" fill="#000000"/><path d="M84 48h-32c-1.1 0-2-0.896-2-2s0.9-2 2-2h32c1.1 0 2 0.896 2 2s-0.9 2-2 2z" fill="#000000"/><path d="M46.344 65.656c-0.512 0-1.024-0.196-1.416-0.584-0.78-0.772-0.78-2.048 0-2.828l11.316-11.312c0.776-0.772 2.048-0.772 2.828 0 0.776 0.78 0.776 2.056 0 2.828l-11.316 11.312c-0.388 0.388-0.9 0.584-1.412 0.584z" fill="#000000"/><text x="0" y="111" fill="#000000" font-size="5px" font-weight="bold" font-family="'Helvetica Neue', Helvetica, Arial-Unicode, Arial, Sans-serif">Created by iconsmind.com</text><text x="0" y="116" fill="#000000" font-size="5px" font-weight="bold" font-family="'Helvetica Neue', Helvetica, Arial-Unicode, Arial, Sans-serif">from the Noun Project</text></svg>